HIERARCHY
ROOT Hips
{
  OFFSET 57.8838 95.319 338.509
  CHANNELS 6 Xposition Yposition Zposition Zrotation Xrotation Yrotation
  JOINT LeftUpLeg
  {
    OFFSET 8.64259 1.95398 -2.38835
    CHANNELS 3 Zrotation Xrotation Yrotation
    JOINT LeftLeg
    {
      OFFSET 43.7702 0 0
      CHANNELS 3 Zrotation Xrotation Yrotation
      JOINT LeftFoot
      {
        OFFSET 40.6238 0 0
        CHANNELS 3 Zrotation Xrotation Yrotation
        JOINT LeftToeBase
        {
          OFFSET 12.7242 0 0
          CHANNELS 3 Zrotation Xrotation Yrotation
          End Site
          {
            OFFSET 0 0 0
          }
        }
      }
    }
  }
  JOINT RightUpLeg
  {
    OFFSET -8.2249 1.95398 -2.59336
    CHANNELS 3 Zrotation Xrotation Yrotation
    JOINT RightLeg
    {
      OFFSET 43.5653 0 0
      CHANNELS 3 Zrotation Xrotation Yrotation
      JOINT RightFoot
      {
        OFFSET 40.6238 0 0
        CHANNELS 3 Zrotation Xrotation Yrotation
        JOINT RightToeBase
        {
          OFFSET 12.7242 0 0
          CHANNELS 3 Zrotation Xrotation Yrotation
          End Site
          {
            OFFSET 0 0 0
          }
        }
      }
    }
  }
  JOINT Spine
  {
    OFFSET 0.165834 0.87714 6.61349
    CHANNELS 3 Zrotation Xrotation Yrotation
    JOINT Spine1
    {
      OFFSET 7.38963 1.71661e-005 0
      CHANNELS 3 Zrotation Xrotation Yrotation
      JOINT Spine2
      {
        OFFSET 11.9445 1.14441e-005 0
        CHANNELS 3 Zrotation Xrotation Yrotation
        JOINT Spine3
        {
          OFFSET 14.7254 4.19617e-005 0
          CHANNELS 3 Zrotation Xrotation Yrotation
          JOINT Spine4
          {
            OFFSET 10.9679 0 0
            CHANNELS 3 Zrotation Xrotation Yrotation
            JOINT RightShoulder
            {
              OFFSET 2.46616 -1.6653 3.69651
              CHANNELS 3 Zrotation Xrotation Yrotation
              JOINT RightArm
              {
                OFFSET 13.0012 0 0
                CHANNELS 3 Zrotation Xrotation Yrotation
                JOINT RightForeArm
                {
                  OFFSET 28.7848 1.62311e-005 0
                  CHANNELS 3 Zrotation Xrotation Yrotation
                  JOINT RightHand
                  {
                    OFFSET 26.5688 1.62095e-005 0
                    CHANNELS 3 Zrotation Xrotation Yrotation
                    End Site
                    {
                      OFFSET 0 0 0
                    }
                  }
                }
              }
            }
            JOINT LeftShoulder
            {
              OFFSET 2.38034 -1.29275 -3.7523
              CHANNELS 3 Zrotation Xrotation Yrotation
              JOINT LeftArm
              {
                OFFSET 16.3182 6.07031e-005 0
                CHANNELS 3 Zrotation Xrotation Yrotation
                JOINT LeftForeArm
                {
                  OFFSET 27.0901 0 0
                  CHANNELS 3 Zrotation Xrotation Yrotation
                  JOINT LeftHand
                  {
                    OFFSET 24.5451 1.51738e-005 0
                    CHANNELS 3 Zrotation Xrotation Yrotation
                    End Site
                    {
                      OFFSET 0 0 0
                    }
                  }
                }
              }
            }
            JOINT Neck
            {
              OFFSET 5.0226 -0.0266342 0
              CHANNELS 3 Zrotation Xrotation Yrotation
              JOINT Head
              {
                OFFSET 6.69364 2.86102e-005 0
                CHANNELS 3 Zrotation Xrotation Yrotation
                End Site
                {
                  OFFSET 0 0 0
                }
              }
            }
          }
        }
      }
    }
  }
}
MOTION
Frames:	7
Frame Time:	0.0416667
239.813 99.4894 -259.603 -91.2877 -58.8654 -90.0041 -178.161 -0.727332 88.9309 -8.69757 12.5183 1.64071 58.9066 2.72426 10.0069 38.7025 4.1571 3.46751 173.311 2.71366 93.9386 -16.4937 -14.3502 2.39145 61.6843 -1.72803 -5.05903 33.7757 -6.59349 0.574472 0.427078 8.30275 -91.4595 10.2617 0.18399 -2.91453 -1.41249 0.0555982 -2.9198 -23.9241 1.0511 -2.72476 -3.91142 1.0511 -2.72477 129.786 -33.4591 -30.8203 30.4257 -38.4857 -24.38 -10.2513 -23.4461 -29.7081 -24.4335 -2.81148 7.01447 -46.749 -77.75 132.063 -23.5085 -16.7294 -23.9672 9.4628 70.5876 -15.0417 -2.84706 -0.0460166 -16.7208 75.7346 34.0853 13.2304 -66.252 29.0615 -16.7555 
239.858 99.4881 -259.625 -91.1889 -58.8491 -90.3619 -178.547 -1.03853 88.3868 -7.86936 12.1463 1.67878 58.4984 2.67049 9.6776 38.9153 4.284 4.24483 173.376 2.92615 93.8739 -16.5845 -11.4651 1.73794 62.4267 -1.82076 -4.18029 33.4496 -6.06913 1.92993 0.39612 8.28147 -91.4023 10.3043 0.147903 -2.79804 -1.36961 0.024677 -2.80185 -23.8829 0.9817 -2.62447 -3.87023 0.981706 -2.62448 129.621 -33.2411 -30.9546 30.5737 -38.6972 -24.61 6.85418 5.97004 -29.4923 -48.2574 5.14201 -11.3332 -46.8222 -77.6643 132.01 -23.8872 -16.8454 -24.1776 8.88104 69.4516 -14.6885 -3.99377 0.0601294 -14.8599 75.9524 33.468 12.8368 -68.3765 28.5696 -15.7032 
239.83 99.3664 -259.617 -91.2102 -59.0718 -90.2473 -178.369 -0.143583 88.5362 -9.66127 12.5789 1.63375 59.2963 2.85504 9.81715 39.071 4.35472 4.26738 173.279 2.72627 93.3547 -16.8172 -19.1137 2.77099 61.0523 -2.29613 -7.15471 34.0854 -7.14379 -1.09713 0.317533 8.2301 -91.3878 10.4054 -0.00329651 -2.75708 -1.26847 -0.124599 -2.75427 -23.7817 0.825172 -2.63079 -3.76905 0.825181 -2.6308 129.033 -32.9071 -31.7284 31.2636 -38.6983 -24.4312 42.6218 46.6837 -49.9441 -56.3678 14.8698 -33.5443 -47.6759 -77.2906 131.182 -23.9846 -16.8094 -24.0162 11.0262 70.0182 -16.7831 -5.13412 0.176394 -15.9586 76.3607 31.4045 11.0636 -72.7812 26.5368 -11.9827 
239.717 99.3987 -259.566 -89.5396 -59.4952 -88.1412 -178.067 0.86936 89.3815 -9.97907 12.9123 1.57877 59.4406 3.05377 10.0723 39.0777 4.31518 3.31441 173.797 3.07305 94.5416 -15.5737 -13.9979 2.39298 61.1704 -1.53665 -6.07629 34.1477 -7.01492 1.32926 0.213567 8.06416 -91.4449 10.7337 -0.24061 -2.85089 -0.940306 -0.365796 -2.83756 -23.4511 0.626979 -2.79153 -3.43849 0.626979 -2.79152 127.914 -32.4328 -33.3386 32.4861 -38.0625 -23.7149 25.0945 33.1913 -35.4164 -56.2941 11.796 -27.2769 -48.7671 -76.9637 130.067 -24.206 -17.0478 -23.8307 17.892 75.4749 -24.2803 -0.604033 -0.188846 -10.7344 75.2959 29.1725 10.6771 -76.7512 24.2037 -9.75467 
239.814 99.4215 -259.581 -90.6198 -59.3827 -89.3882 -178.255 0.0659446 89.0014 -9.53995 12.7917 1.65827 59.2553 2.92902 9.77487 39.0167 4.31872 3.99858 174.374 2.30717 95.0304 -14.7079 -8.90153 0.859051 62.0025 -1.56386 -4.70733 33.4561 -5.97275 3.33098 0.0935013 8.03224 -91.3489 10.7967 -0.436253 -2.64187 -0.876808 -0.552064 -2.62014 -23.3906 0.377601 -2.65088 -3.37796 0.377611 -2.65088 126.479 -31.9754 -35.5515 34.2773 -38.032 -22.4303 -19.4765 -42.4906 -28.0717 0.807766 -1.36215 13.0155 -50.819 -76.0017 128.052 -24.7695 -16.8469 -23.3042 13.2713 72.6841 -19.4287 0.484934 -0.290611 -12.4365 73.4748 26.6179 10.3282 -79.4978 21.2172 -7.41027 
239.985 99.2886 -259.65 -92.3168 -59.0057 -91.2785 -178.33 -0.30239 88.4472 -10.4574 12.6133 1.61525 59.6494 2.85588 9.81574 39.072 4.37087 4.61487 173.357 1.95146 93.0316 -16.5042 -22.3379 2.97523 60.1805 -2.46606 -9.1015 34.6099 -7.93497 -1.80811 -0.0285588 8.02714 -91.2467 10.8065 -0.63222 -2.42061 -0.866534 -0.738138 -2.39047 -23.3836 0.124233 -2.49868 -3.37094 0.12424 -2.49868 124.596 -31.0532 -38.3408 36.5199 -38.105 -20.9264 -16.1817 -38.6702 -25.9937 -3.98909 -0.635617 11.8184 -52.6907 -75.2019 126.155 -24.6587 -17.2361 -22.559 11.1486 71.5339 -17.3974 0.843193 -0.307861 -12.1034 70.3303 25.217 10.3697 -78.1692 19.584 -6.38061 
240.374 99.286 -259.839 -92.245 -58.4886 -91.2368 -178.537 0.0263409 88.1805 -10.7593 12.2115 1.63696 59.5846 2.79236 10.2909 38.9677 4.29742 4.0094 173.25 2.32127 92.8785 -16.5527 -22.3508 2.95807 60.1477 -2.47507 -9.09072 34.5628 -7.83025 -1.45301 -0.133195 7.91319 -91.182 11.0337 -0.812993 -2.27397 -0.638909 -0.91225 -2.23602 -23.1582 -0.0921964 -2.41311 -3.14558 -0.0921939 -2.4131 122.53 -30.1827 -41.6221 38.9789 -38.153 -19.1657 -6.65711 -24.6406 -22.4263 -21.8448 -1.44147 3.82343 -54.4437 -74.421 124.358 -23.9931 -17.3796 -21.4887 10.1529 70.1306 -16.763 0.592388 -0.282916 -11.7975 65.5235 26.11 12.3836 -70.4075 20.9458 -9.41198 
